DataType=double
version=3
OpenSimVersion=4.5-2023-11-26-efcdfd3eb
endheader
time	EMG01_right_gast_med	EMG02_right_glut_max	EMG03_left_gast_med	EMG04_left_glut_max	EMG05_right_glut_med	EMG06_right_bic_fem	EMG07_right_rect_fem	EMG08_right_vast_lat	EMG09_right_vast_med	EMG10_right_tens_fasc_lat	EMG11_left_glut_med	EMG12_left_bic_fem	EMG13_left_rect_fem	EMG14_left_vast_lat	EMG15_left_vast_med	EMG16_left_tens_fasc_lat
2.07	123.0437154811795	6.558338334354312	17.51474235104525	30.69213641825833	78.76079117496988	5.622368856198521	15.27586040037397	6.043964384168744	10.43375880991454	32.64893456050787	14.72260780477078	25.2092386179286	21.14338957200129	30.00773638992338	54.51596629333564	54.16583623193668
2.08	118.8393968485403	8.089914439489432	18.98489180352869	30.44696703271909	83.27071674946021	5.843534636671561	15.40171449000224	6.376140115873635	11.32824967982884	34.71367015318523	15.33798050019971	25.29190077501135	21.41208060146407	31.30520253963205	57.80752696813816	54.03973274114144
2.09	114.2144141882116	9.79914872390968	20.48426694663654	30.32228192104014	87.67068053399387	6.080614412276635	15.45415586188185	6.704860072561352	12.27829149002228	36.74884089134483	15.94319247496188	25.27430996160231	21.60376741327397	32.5372026108161	61.01982042454081	53.95361915397167
2.1	109.2135018236089	11.67737026964662	22.01495705533488	30.31331544722616	91.90874956400992	6.333351772615077	15.43239605189978	7.027909514852101	13.2695723878907	38.73589162171984	16.53420280353466	25.15771476591644	21.71909118901599	33.69090923301068	64.12320531592094	53.90569294395771
2.11	103.886346471789	13.71382740371287	23.57867210013346	30.4137429922114	95.93345602212754	6.601875197124507	15.33680838074541	7.343127363093197	14.2874396119786	40.65730561750237	17.10693664085268	24.94440397718541	21.75965267143578	34.75369864383973	67.08826752522859	53.89313356746226
2.12	98.28658273760395	15.89569086955298	25.17672684138557	30.61580188868638	99.69456037994192	6.886644275369081	15.16889956635501	7.648412342835187	15.31705538014909	42.49679434026017	17.65734084144544	24.63764763493452	21.72794125240608	35.7133289917032	69.88615716938895	53.91219304769239
2.13	92.47072715046389	18.20809082812837	26.8100516973877	30.91043510602101	103.1438559590758	7.18839256961186	14.9312520102353	7.941733276394262	16.34356343593011	44.23945242387119	18.18144577995887	24.24162437106958	21.62724902736714	36.55813271689872	72.48894132718266	53.95828966274948
2.14	86.49708692594973	20.63419032902711	28.47923014253912	31.28745517262627	106.235997373266	7.50806859389998	14.62744134021862	8.221144133653423	17.35226505403162	45.87187223513834	18.67543213769688	23.76133816957185	21.46157422985143	37.27722021098317	74.86996970063014	54.02610458859037
2.15	80.42467572827876	23.15529728365988	30.18456181857318	31.73572511868191	108.9293315220685	7.846776157797504	14.26193478978863	8.4848042400422	18.32880278821339	47.38221421778495	19.13570079960047	23.20252732813614	21.23551852346253	37.86069091174092	77.00424919064673	54.10968160455429
2.16	74.31216433999106	25.75101626745856	31.9261498312808	32.24335262022593	111.1867061647908	8.205715114736869	13.83997587872942	8.731003734287579	19.2593496897194	48.76023209516502	19.55894340798321	22.57156814038375	20.9541822065278	38.29984686225284	78.86882195420873	54.20252996345334
2.17	68.21688971032793	28.39944065649559	33.70400993940628	32.79789315920441	112.9762279266648	8.586123435312286	13.36746024918347	8.958194000840082	20.13080113900047	49.99725558131961	19.94221056813777	21.8753756115176	20.62306062378789	38.58740258196185	80.44314012067193	54.29773064422323
2.18	62.19394156284402	31.07738465999154	35.51819868700401	33.38655778980053	114.2719399942741	8.989221494754792	12.85080684681151	9.165022430216744	20.93096590300465	51.08613686168949	20.28297417909474	21.12130333504162	20.24794414578746	38.71768386953732	81.70942919941942	54.38804632557585
2.19	56.29534165341627	33.76065377658928	37.36895708916533	33.99642091153046	115.0543911864067	9.416159435462614	12.29682809337802	9.350370527479983	21.64875264234954	52.02116994571482	20.57917995796895	20.31704442870695	19.83482315244468	38.68680699826628	82.65303127322909	54.46603526444271
